<?xml version="1.0" encoding="UTF-8"?>
<svg version="1.1" xmlns="http://www.w3.org/2000/svg" width="1080" height="1350">
<path d="M0 0 C57.56510587 -0.02286376 115.13021133 -0.04049892 172.69532084 -0.05106533 C179.48364815 -0.05231272 186.27197544 -0.05360927 193.06030273 -0.05493164 C193.73584087 -0.0550624 194.41137901 -0.05519316 195.107388 -0.05532788 C217.02321746 -0.05959303 238.93904436 -0.06710716 260.85487226 -0.07629722 C284.00425322 -0.08598697 307.15363264 -0.09199361 330.30301577 -0.09408849 C344.179088 -0.09546406 358.05515285 -0.09981643 371.9312228 -0.10791647 C381.43256412 -0.11318196 390.93390159 -0.11480475 400.43524425 -0.11350138 C405.92587067 -0.11285769 411.41648416 -0.11387898 416.90710831 -0.11920547 C421.92489763 -0.12403803 426.94266521 -0.12433961 431.96045548 -0.12089889 C433.78414941 -0.12047306 435.60784464 -0.12177 437.43153595 -0.12488318 C439.89368484 -0.12884481 442.35575324 -0.12676488 444.81790066 -0.12304783 C445.54043778 -0.12567484 446.26297491 -0.12830186 447.0074071 -0.13100848 C451.8858542 -0.1141458 451.8858542 -0.1141458 453 1 C453.09967594 3.40248445 453.13363058 5.77625971 453.12584114 8.17930603 C453.12729458 8.94330518 453.12874802 9.70730434 453.13024551 10.49445498 C453.13393211 13.08738715 453.13040687 15.6802615 453.12698364 18.27319336 C453.12813441 20.1377538 453.12972164 22.00231401 453.13171089 23.86687374 C453.13591027 29.01620123 453.13381079 34.16551035 453.13072467 39.31483793 C453.12847325 44.85817818 453.13194888 50.40151513 453.13470459 55.94485474 C453.13916406 66.81439024 453.13818504 77.68391886 453.13529195 88.55345464 C453.13303861 97.38303894 453.13272509 106.2126213 453.13381577 115.04220581 C453.133969 116.29624488 453.13412223 117.55028395 453.13428011 118.8423242 C453.13459982 121.38944093 453.13492403 123.93655767 453.1352527 126.48367441 C453.13802652 149.71644131 453.13514418 172.94920417 453.1299101 196.18197022 C453.12516418 217.40940144 453.1255888 238.63682665 453.13037109 259.86425781 C453.13572093 283.69073475 453.13783332 307.51720837 453.13475883 331.3436861 C453.13444026 333.88172213 453.13412589 336.41975816 453.13381577 338.95779419 C453.13366149 340.20673633 453.13350721 341.45567847 453.13334826 342.74246734 C453.13248284 351.56707174 453.13394652 360.39167401 453.13629532 369.21627808 C453.13909254 379.96244059 453.13835671 390.70859579 453.13301457 401.45475745 C453.1303765 406.94336458 453.12937427 412.4319595 453.13266373 417.92056656 C453.13562454 422.93646723 453.13403751 427.95234427 453.12868617 432.96824276 C453.12756106 434.79123318 453.12815523 436.61422556 453.13056196 438.43721473 C453.13356418 440.89840363 453.13052333 443.35950955 453.12584114 445.82069397 C453.12818231 446.54294525 453.13052347 447.26519653 453.13293558 448.00933421 C453.11415034 452.88584966 453.11415034 452.88584966 452 454 C449.59655903 454.09876265 447.22186144 454.13178819 444.81790066 454.12304783 C444.05360191 454.12420167 443.28930316 454.12535552 442.50184384 454.12654433 C439.90790055 454.12921817 437.31401774 454.12468257 434.72007751 454.12025452 C432.85480455 454.12069006 430.98953164 454.12156466 429.12425905 454.12284368 C423.97299931 454.12509192 418.82176014 454.12106289 413.67050302 454.11606562 C408.12513818 454.11176599 402.5797746 454.1132072 397.03440857 454.1139679 C387.41817383 454.11449344 377.80194585 454.11134345 368.18571281 454.10573006 C354.2820798 454.09761919 340.37845008 454.09500026 326.47481496 454.09374207 C303.91965001 454.09155089 281.36448896 454.08489761 258.80932617 454.07543945 C236.89298522 454.06625977 214.97664523 454.05917383 193.06030273 454.05493164 C192.38512099 454.05480011 191.70993924 454.05466859 191.01429744 454.05453308 C184.2340403 454.05321459 177.45378316 454.05193877 170.67352601 454.05069422 C113.78234814 454.04024751 56.89117425 454.02259609 0 454 C-1.17295795 450.48112614 -1.13794219 447.32119338 -1.12584114 443.6610651 C-1.12729458 442.90409892 -1.12874802 442.14713273 -1.13024551 441.36722818 C-1.13391834 438.81023373 -1.13041314 436.25329841 -1.12698364 433.69630432 C-1.12813495 431.85277985 -1.12972255 430.00925561 -1.13171089 428.16573185 C-1.13590285 423.08372268 -1.1338141 418.00173217 -1.13072467 412.91972291 C-1.12847024 407.44520906 -1.13195041 401.97069851 -1.13470459 396.4961853 C-1.1391609 385.76495057 -1.13818641 375.03372281 -1.13529195 364.3024878 C-1.13303726 355.58357972 -1.13272568 346.86467359 -1.13381577 338.1457653 C-1.133969 336.90674019 -1.13412223 335.66771508 -1.13428011 334.39114375 C-1.13459982 331.87439228 -1.13492403 329.3576408 -1.1352527 326.84088933 C-1.13802568 303.89183446 -1.13514564 280.94278268 -1.1299101 257.99372857 C-1.12516488 237.03447261 -1.12558841 216.07522271 -1.13037109 195.1159668 C-1.13572346 171.58133521 -1.13783184 148.0467062 -1.13475883 124.51207393 C-1.13444027 122.00406611 -1.1341259 119.49605829 -1.13381577 116.98805046 C-1.13366149 115.75394098 -1.13350721 114.51983151 -1.13334826 113.24832477 C-1.13248356 104.53681634 -1.13394499 95.82531006 -1.13629532 87.11380196 C-1.13909536 76.50172163 -1.13835074 65.88964871 -1.13301457 55.27756924 C-1.13038025 49.85946078 -1.12936797 44.44136468 -1.13266373 39.0232563 C-1.13563221 34.06834231 -1.13402456 29.11345218 -1.12868617 24.15854036 C-1.12756436 22.36112819 -1.128148 20.56371403 -1.13056196 18.76630313 C-1.13358126 16.33243167 -1.13050542 13.89864309 -1.12584114 11.46477604 C-1.12818231 10.75899922 -1.13052347 10.05322241 -1.13293558 9.32605842 C-1.12037687 6.07061026 -0.99932729 3.11382071 0 0 Z " fill="#FEFEFE" transform="translate(597,730)"/>
<path d="M0 0 C1.49309692 0.00031723 1.49309692 0.00031723 3.01635742 0.00064087 C16.78351743 0.02983672 30.07328347 0.46268953 43.50292969 3.78076172 C46.06721494 4.40666127 48.64050009 4.94439706 51.2265625 5.47265625 C78.6683622 11.26425434 105.00640355 23.32704586 127.9375 39.375 C128.9378125 40.06207031 129.938125 40.74914062 130.96875 41.45703125 C137.31582635 45.93463827 143.21256287 50.89003051 149.08984375 55.95703125 C151.80226268 58.3284766 151.80226268 58.3284766 154.31640625 60.07421875 C155.11884766 60.71810547 155.11884766 60.71810547 155.9375 61.375 C155.9375 62.035 155.9375 62.695 155.9375 63.375 C156.47375 63.58125 157.01 63.7875 157.5625 64 C160.85728009 65.90750426 163.53113628 68.42319384 165.9375 71.375 C165.9375 72.035 165.9375 72.695 165.9375 73.375 C166.5975 73.375 167.2575 73.375 167.9375 73.375 C171.16720189 76.84368617 174.01942491 80.64249777 176.9375 84.375 C178.04738281 85.78072266 178.04738281 85.78072266 179.1796875 87.21484375 C201.3443188 115.96576228 215.68553344 148.91282261 222.9375 184.375 C223.11007324 185.19742188 223.28264648 186.01984375 223.46044922 186.8671875 C232.35008315 230.46217247 225.04075381 276.73565364 207.9375 317.375 C207.64536621 318.07061035 207.35323242 318.7662207 207.05224609 319.48291016 C196.27995854 344.67376483 179.9128755 366.77614788 160.9375 386.375 C160.15890625 387.19355469 159.3803125 388.01210938 158.578125 388.85546875 C139.15954906 408.85935637 114.45227521 424.40783302 88.9375 435.375 C88.17050781 435.70741699 87.40351563 436.03983398 86.61328125 436.38232422 C40.79862637 455.8983956 -10.0581206 458.2426505 -58.0625 446.375 C-58.81595703 446.19098633 -59.56941406 446.00697266 -60.34570312 445.81738281 C-80.386344 440.79329258 -99.41090692 431.9986008 -117.0625 421.375 C-118.09503906 420.75882813 -119.12757813 420.14265625 -120.19140625 419.5078125 C-143.88227733 404.88215382 -165.82089164 385.01217062 -182.0625 362.375 C-182.5167334 361.74916016 -182.9709668 361.12332031 -183.43896484 360.47851562 C-217.39278796 313.42771627 -233.86633923 254.01299816 -225.51660156 196.16601562 C-222.81555777 179.56476154 -219.21065668 163.05949352 -213.0625 147.375 C-212.73910645 146.54983887 -212.41571289 145.72467773 -212.08251953 144.87451172 C-188.74932426 86.31852564 -143.78649342 41.2171116 -86.0625 16.375 C-74.53164662 11.55057683 -62.85776742 7.84643665 -50.6875 5 C-49.66712646 4.76128174 -48.64675293 4.52256348 -47.59545898 4.27661133 C-31.71515826 0.76922004 -16.20275655 -0.03182227 0 0 Z " fill="#FEFEFE" transform="translate(292.0625,201.625)"/>
<path d="M0 0 C0.96279153 -0.00260775 1.92558306 -0.00521549 2.91755009 -0.00790226 C3.98785686 -0.00567154 5.05816362 -0.00344082 6.16090393 -0.0011425 C7.28811324 -0.00270249 8.41532255 -0.00426248 9.57668972 -0.00586975 C13.38545443 -0.00988506 17.19417988 -0.00668805 21.00294495 -0.00355339 C23.72064802 -0.00435668 26.43834939 -0.00665059 29.15605164 -0.00886345 C35.79041818 -0.01332191 42.42477345 -0.01234434 49.05914044 -0.00945081 C54.44860251 -0.00719707 59.8380614 -0.00688412 65.2275238 -0.00797462 C65.99309929 -0.00812786 66.75867478 -0.00828109 67.54744953 -0.00843897 C69.10245427 -0.00875868 70.657459 -0.00908289 72.21246374 -0.00941156 C86.81114953 -0.01226657 101.40982905 -0.00897899 116.00851381 -0.00361119 C128.54865285 0.00085687 141.08878263 0.00008094 153.62892151 -0.00452995 C168.17356169 -0.00987534 182.71819638 -0.01199188 197.26283741 -0.00891769 C198.81228447 -0.00859912 200.36173153 -0.00828475 201.91117859 -0.00797462 C203.05486669 -0.00774321 203.05486669 -0.00774321 204.2216596 -0.00750712 C209.60781164 -0.00664186 214.9939602 -0.00810504 220.38011169 -0.01045418 C226.93948738 -0.01325198 233.49885109 -0.01251434 240.05822539 -0.00717343 C243.40815841 -0.00453614 246.75805477 -0.00406555 250.10799026 -0.00682259 C253.73128 -0.00953087 257.35451244 -0.00615691 260.97779846 -0.0011425 C262.04810523 -0.00337322 263.118412 -0.00560395 264.22115231 -0.00790226 C265.6653396 -0.00399064 265.6653396 -0.00399064 267.13870239 0 C267.97620309 0.00016235 268.81370378 0.0003247 269.67658329 0.00049198 C271.5693512 0.12584114 271.5693512 0.12584114 272.5693512 1.12584114 C272.66609212 2.60105565 272.69306889 4.08090029 272.69239902 5.55928326 C272.69439007 6.52269148 272.69638112 7.48609971 272.69843251 8.47870213 C272.69551966 9.54969102 272.69260682 10.6206799 272.68960571 11.724123 C272.69088735 13.41599532 272.69088735 13.41599532 272.69219488 15.14204687 C272.69385297 18.95314833 272.68832295 22.76420657 272.68287659 26.57530403 C272.6820392 29.29462907 272.68270824 32.01395323 272.68331909 34.73327827 C272.68384453 40.60407211 272.68069572 46.47485486 272.67508125 52.3456459 C272.66696885 60.83391935 272.6643513 69.32218741 272.66309326 77.81046432 C272.66090233 91.58071341 272.65424114 105.35095659 272.64479065 119.12120247 C272.63561759 132.50108498 272.62853624 145.88096589 272.62428284 159.26085091 C272.62388875 160.49707299 272.62388875 160.49707299 272.62348671 161.75826926 C272.62218171 165.89260228 272.62091799 170.02693531 272.6196748 174.16126835 C272.60930091 208.48279687 272.59168149 242.80431837 272.5693512 277.12584114 C270.17435609 278.32333869 268.70550752 278.25116175 266.03127193 278.25168228 C265.06997275 278.25429003 264.10867357 278.25689778 263.11824411 278.25958455 C261.52298964 278.25623846 261.52298964 278.25623846 259.89550781 278.25282478 C258.77152763 278.25438477 257.64754745 278.25594476 256.48950726 278.25755203 C252.69766808 278.26156229 248.90586846 278.25837227 245.11402893 278.25523567 C242.40603044 278.25603925 239.69803367 278.25833325 236.99003601 278.26054573 C230.38321213 278.26500143 223.77639959 278.26402788 217.16957527 278.26113309 C211.80254368 278.25887847 206.43551528 278.25856679 201.06848335 278.25965691 C199.9244864 278.25988676 199.9244864 278.25988676 198.75737839 278.26012125 C197.20825219 278.26044096 195.65912598 278.26076517 194.10999978 278.26109384 C179.57092119 278.263948 165.03184889 278.26066251 150.49277133 278.25529347 C138.00437879 278.2508246 125.51599553 278.25160218 113.02760315 278.25621223 C98.54045444 278.26155758 84.05331125 278.26367426 69.56616169 278.26059997 C68.02290889 278.26028141 66.47965608 278.25996704 64.93640327 278.25965691 C64.17700364 278.25950263 63.417604 278.25934836 62.63519226 278.2591894 C57.27107 278.2583242 51.90695123 278.25978719 46.54282951 278.26213646 C40.0109264 278.26493418 33.47903532 278.26419676 26.94713359 278.25885572 C23.61137045 278.25621845 20.27564411 278.25574781 16.93987846 278.25850487 C13.33196886 278.26121315 9.72411681 278.25783922 6.11621094 278.25282478 C5.05047724 278.25505551 3.98474354 278.25728623 2.88671488 278.25958455 C1.92802344 278.2569768 0.96933201 278.25436905 -0.01841068 278.25168228 C-0.85233154 278.25151993 -1.6862524 278.25135758 -2.54544359 278.2511903 C-4.4306488 278.12584114 -4.4306488 278.12584114 -5.4306488 277.12584114 C-5.52828143 275.65159197 -5.55620353 274.17267082 -5.55648994 272.69519234 C-5.55909769 271.73240081 -5.56170544 270.76960928 -5.56439221 269.77764225 C-5.56216149 268.70733548 -5.55993077 267.63702871 -5.55763245 266.53428841 C-5.55919244 265.4070791 -5.56075243 264.27986979 -5.56235969 263.11850262 C-5.56637501 259.3097379 -5.56317799 255.50101246 -5.56004333 251.69224739 C-5.56084662 248.97454431 -5.56314053 246.25684295 -5.56535339 243.5391407 C-5.56981185 236.90477416 -5.56883429 230.27041889 -5.56594075 223.63605189 C-5.56368702 218.24658983 -5.56337407 212.85713093 -5.56446457 207.46766853 C-5.5646178 206.70209304 -5.56477104 205.93651755 -5.56492891 205.14774281 C-5.56524862 203.59273807 -5.56557283 202.03773334 -5.5659015 200.4827286 C-5.56875652 185.88404281 -5.56546894 171.28536329 -5.56010114 156.68667853 C-5.55563308 144.14653949 -5.556409 131.6064097 -5.5610199 119.06627083 C-5.56636528 104.52163064 -5.56848182 89.97699596 -5.56540763 75.43235493 C-5.56508907 73.88290787 -5.5647747 72.33346081 -5.56446457 70.78401375 C-5.56431029 70.02155501 -5.56415602 69.25909628 -5.56399707 68.47353274 C-5.5631318 63.0873807 -5.56459499 57.70123214 -5.56694412 52.31508064 C-5.56974193 45.75570496 -5.56900428 39.19634125 -5.56366338 32.63696694 C-5.56102609 29.28703393 -5.56055549 25.93713757 -5.56331253 22.58720207 C-5.56602082 18.96391234 -5.56264686 15.3406799 -5.55763245 11.71739388 C-5.55986317 10.64708711 -5.56209389 9.57678034 -5.56439221 8.47404003 C-5.56178446 7.5112485 -5.55917671 6.54845697 -5.55648994 5.55648994 C-5.55632759 4.71898925 -5.55616524 3.88148855 -5.55599797 3.01860905 C-5.31136468 -0.67534484 -3.18994241 0.00061838 0 0 Z " fill="#FEFEFE" transform="translate(246.43064880371094,729.8741588592529)"/>
<path d="M0 0 C0.94463985 -0.00720654 1.88927971 -0.01441309 2.86254501 -0.02183801 C4.42220175 -0.01077658 4.42220175 -0.01077658 6.0133667 0.00050831 C7.11637241 -0.0034661 8.21937813 -0.0074405 9.35580826 -0.01153535 C13.07089172 -0.02119944 16.78559829 -0.00931513 20.50067139 0.00241566 C23.15632153 -0.00001095 25.81194631 -0.00361224 28.46759033 -0.00864697 C34.94330384 -0.01814654 41.4189061 -0.01152504 47.89461136 0.00061598 C55.43144761 0.01422129 62.96825722 0.01259942 70.50510263 0.01048265 C83.95026301 0.00729107 97.39537046 0.01897013 110.84051514 0.03854847 C123.89521904 0.05755335 136.94986089 0.06463623 150.00457764 0.05905628 C164.21085962 0.05300211 178.4171143 0.05316892 192.62339401 0.06454211 C194.1374588 0.06574944 195.65152359 0.06695543 197.16558838 0.06816006 C197.91059105 0.0687636 198.65559372 0.06936713 199.42317224 0.06998896 C204.6801689 0.07387265 209.93715542 0.07347274 215.19415283 0.07157421 C221.59826697 0.06945478 228.00232669 0.07465718 234.40642548 0.08918776 C237.67562716 0.09644464 240.94473305 0.09943157 244.21394348 0.0959444 C247.75329327 0.09274087 251.29240117 0.10175828 254.83172607 0.1140337 C255.87149723 0.11025438 256.91126839 0.10647505 257.98254776 0.1025812 C259.39950754 0.11132949 259.39950754 0.11132949 260.84509277 0.12025452 C261.66252331 0.12112129 262.47995384 0.12198807 263.322155 0.12288111 C265.42254639 0.37473011 265.42254639 0.37473011 268.42254639 2.37473011 C268.79629254 4.36489773 268.79629254 4.36489773 268.79448318 6.86316395 C268.80436795 8.28851239 268.80436795 8.28851239 268.81445241 9.74265575 C268.80639601 10.79380377 268.7983396 11.84495178 268.79003906 12.92795277 C268.79494232 14.59448871 268.79494232 14.59448871 268.79994464 16.29469204 C268.80726699 20.04286159 268.79302821 23.79064652 268.7789917 27.53879261 C268.77978198 30.21562132 268.78175284 32.89242502 268.78518677 35.56924915 C268.7908301 42.10024966 268.78048655 48.63113312 268.76489881 55.16211367 C268.74739279 62.76143153 268.74594025 70.36072643 268.74528322 77.96006131 C268.74359379 91.51562731 268.72776225 105.07113986 268.70379639 118.62668324 C268.6805371 131.79205233 268.66637184 144.95738751 268.66278076 158.12277699 C268.66255799 158.93358353 268.66233523 159.74439007 268.66210571 160.57976651 C268.66166312 162.21305764 268.6612211 163.84634876 268.66077964 165.47963989 C268.66056007 166.28525678 268.66034051 167.09087368 268.66011429 167.92090321 C268.65979031 169.12620109 268.65979031 169.12620109 268.65945978 170.35584843 C268.65576148 182.88557051 268.64440156 195.41528709 268.63198389 207.94500315 C268.62754401 212.49245069 268.62410764 217.0398977 268.62136176 221.58734655 C268.61693459 228.79988772 268.60918017 236.0124086 268.59458736 243.22493696 C268.58796773 246.52233733 268.58343714 249.81971621 268.58212662 253.1171236 C268.58038976 256.68527834 268.57253027 260.25336632 268.56298828 263.82150745 C268.564288 265.39822948 268.564288 265.39822948 268.56561399 267.00680447 C268.56177284 267.95703676 268.55793169 268.90726906 268.55397415 269.88629627 C268.55210441 271.12293805 268.55210441 271.12293805 268.55019689 272.38456249 C268.42254639 274.37473011 268.42254639 274.37473011 267.42254639 276.37473011 C232.66098296 276.3975954 197.89942124 276.41522778 163.13785193 276.42579544 C159.03833275 276.42704622 154.93881359 276.42834053 150.83929443 276.42966175 C150.02311891 276.42992406 149.20694339 276.43018637 148.36603528 276.43045663 C135.13296215 276.43481355 121.89989335 276.44270121 108.6668228 276.45188291 C95.09875935 276.46121885 81.53069817 276.46678559 67.96263164 276.4688186 C59.5835516 276.47019396 51.20448378 276.4745452 42.8254075 276.48264658 C37.08750188 276.4879133 31.34960262 276.48953457 25.61169476 276.48823149 C22.2962 276.48758799 18.98073133 276.48914534 15.66523933 276.49393559 C12.07912096 276.49886541 8.4930561 276.49773104 4.90693665 276.49498463 C3.8476206 276.49789747 2.78830456 276.50081031 1.69688803 276.50381142 C0.74392999 276.50182037 -0.20902805 276.49982932 -1.19086361 276.49777794 C-2.01979309 276.49815766 -2.84872257 276.49853738 -3.70277113 276.49892861 C-5.57745361 276.37473011 -5.57745361 276.37473011 -6.57745361 275.37473011 C-6.68178655 273.92345217 -6.71693612 272.46714114 -6.72449875 271.01213741 C-6.73182329 270.06451286 -6.73914783 269.11688832 -6.74669433 268.14054787 C-6.74971879 267.08716914 -6.75274326 266.0337904 -6.75585938 264.9484911 C-6.76291405 263.83902713 -6.76996872 262.72956316 -6.77723718 261.58647907 C-6.79976906 257.83768379 -6.81506662 254.08889336 -6.8303833 250.34006214 C-6.84486226 247.66501033 -6.8597178 244.98996285 -6.87498474 242.31491566 C-6.91543124 235.02577197 -6.9483068 227.73660581 -6.97957134 220.44741774 C-6.99909121 215.89932758 -7.02007636 211.35124493 -7.04132843 206.80316257 C-7.09984528 194.22040513 -7.15645895 181.63764239 -7.20617294 169.05484676 C-7.20936012 168.24894631 -7.2125473 167.44304586 -7.21583106 166.61272418 C-7.21902428 165.8048528 -7.22221751 164.99698143 -7.2255075 164.1646291 C-7.23197989 162.52746875 -7.23845543 160.89030841 -7.24493408 159.25314808 C-7.24814613 158.44105329 -7.25135817 157.62895851 -7.25466755 156.79225479 C-7.30709495 143.62843116 -7.37305804 130.46471288 -7.44485292 117.30098201 C-7.51830255 103.79845697 -7.58050674 90.29591852 -7.63135648 76.79328907 C-7.66018954 69.20701668 -7.69391235 61.62083493 -7.74001312 54.03464603 C-7.77920967 47.57562494 -7.80817516 41.11666118 -7.82364073 34.65753783 C-7.83184627 31.35991468 -7.84660973 28.0625481 -7.87115288 24.76500034 C-7.89694175 21.19486244 -7.90436806 17.6251552 -7.90698242 14.05493641 C-7.91892977 13.00601912 -7.93087713 11.95710182 -7.94318652 10.87639916 C-7.94008007 9.92355912 -7.93697362 8.97071907 -7.93377304 7.98900509 C-7.93740789 7.16441488 -7.94104274 6.33982468 -7.94478774 5.49024689 C-7.57745361 3.37473011 -7.57745361 3.37473011 -6.3412745 1.60975856 C-4.08043771 0.02671927 -2.74985054 -0.00018507 0 0 Z " fill="#00D0FE" transform="translate(603.5774536132813,378.62526988983154)"/>
<path d="M0 0 C44.88 0 89.76 0 136 0 C136 45.21 136 90.42 136 137 C91.12 137 46.24 137 0 137 C0 91.79 0 46.58 0 0 Z " fill="#00CFFE" transform="translate(687,978)"/>
<path d="M0 0 C0 0.66 0 1.32 0 2 C0.85722656 2.2165625 1.71445312 2.433125 2.59765625 2.65625 C6.72447295 4.28612939 9.26062534 6.47235864 12.4375 9.5 C13.005896 10.03391357 13.57429199 10.56782715 14.15991211 11.11791992 C18.84662182 15.63037759 22.60803246 20.44148673 26 26 C26.721875 27.0725 27.44375 28.145 28.1875 29.25 C31.21115519 34.68475955 32.4496551 41.02425745 34 47 C34.17869629 47.64412842 34.35739258 48.28825684 34.54150391 48.9519043 C38.1278716 64.97215915 33.56641544 83.62282928 24.93359375 97.265625 C23.01866891 99.90349568 21.04708301 102.46406135 19 105 C18.46761719 105.75925781 17.93523437 106.51851563 17.38671875 107.30078125 C16.92910156 107.86152344 16.47148437 108.42226563 16 109 C15.34 109 14.68 109 14 109 C14 109.66 14 110.32 14 111 C-1.51200083 124.55773301 -19.38171608 129.99459555 -39.61621094 129.18359375 C-58.0952805 127.76037987 -73.51423317 118.22182732 -86 105 C-86.63808594 104.46117187 -87.27617187 103.92234375 -87.93359375 103.3671875 C-91.06150846 99.78398086 -92.74436149 95.62453884 -94.6875 91.3125 C-95.48138573 89.57865357 -96.27687263 87.84553907 -97.07421875 86.11328125 C-97.42057373 85.34798096 -97.76692871 84.58268066 -98.1237793 83.79418945 C-98.86811804 82.02352042 -98.86811804 82.02352042 -100 81 C-105.05413504 60.59900236 -101.69657409 40.77426371 -91.15917969 22.80712891 C-86.26059484 15.17037131 -79.55404678 8.95447603 -72 4 C-71.34257812 3.56171875 -70.68515625 3.1234375 -70.0078125 2.671875 C-68.03183889 1.3955652 -66.03162442 0.18544686 -64 -1 C-63.37480469 -1.37253906 -62.74960937 -1.74507813 -62.10546875 -2.12890625 C-43.92861577 -12.16134445 -17.74144413 -9.09104065 0 0 Z " fill="#01CFFD" transform="translate(370,299)"/>
<path d="M0 0 C22.44 0 44.88 0 68 0 C69.41414513 2.82829026 69.12726716 5.19885945 69.12939453 8.36157227 C69.13202301 9.33983475 69.13202301 9.33983475 69.13470459 10.33786011 C69.13911237 12.49740241 69.13618924 14.65686309 69.1328125 16.81640625 C69.13348577 18.31330888 69.13445598 19.8102114 69.13571167 21.30711365 C69.13718712 24.44523153 69.13503868 27.58332097 69.13037109 30.72143555 C69.12466897 34.7524291 69.12795682 38.78335615 69.13394356 42.81434727 C69.1375491 45.90517177 69.1364107 48.99598038 69.13381577 52.08680534 C69.13314673 53.57362819 69.1339741 55.06045245 69.13629532 56.54727364 C69.13882227 58.62082901 69.13498092 60.69427508 69.12939453 62.76782227 C69.12859894 63.94981705 69.12780334 65.13181183 69.12698364 66.34962463 C69 69 69 69 68 70 C65.88318683 70.0942174 63.76319242 70.11742761 61.64428711 70.11352539 C60.98089828 70.11367142 60.31750946 70.11381744 59.63401794 70.1139679 C57.43176044 70.11326881 55.22958655 70.10547665 53.02734375 70.09765625 C51.50419664 70.09579206 49.98104893 70.09436816 48.457901 70.09336853 C44.44162349 70.08954346 40.42538192 70.07971328 36.40911865 70.06866455 C32.31376634 70.05845019 28.21840824 70.05387086 24.12304688 70.04882812 C16.08201472 70.038091 8.04101183 70.02101472 0 70 C-1.40133204 67.19733592 -1.12724805 64.88114662 -1.12939453 61.74609375 C-1.13254669 60.43133057 -1.13569885 59.11656738 -1.13894653 57.76196289 C-1.1371567 56.32047492 -1.13510573 54.87898726 -1.1328125 53.4375 C-1.13348584 51.96541325 -1.13445611 50.4933266 -1.13571167 49.02124023 C-1.13718723 45.9343968 -1.13503862 42.84758227 -1.13037109 39.76074219 C-1.12467388 35.79934894 -1.12795364 31.83802345 -1.13394356 27.87663269 C-1.13755298 24.83637988 -1.13640882 21.79614319 -1.13381577 18.75588989 C-1.13314755 17.29501335 -1.13397124 15.83413535 -1.13629532 14.3732605 C-1.13882803 12.33347602 -1.13428493 10.29368643 -1.12939453 8.25390625 C-1.12859894 7.09189697 -1.12780334 5.9298877 -1.12698364 4.73266602 C-1 2 -1 2 0 0 Z " fill="#02D0FD" transform="translate(450,1114)"/>
<path d="M0 0 C1.80868813 0.00333092 1.80868813 0.00333092 3.65391541 0.00672913 C4.64899864 0.00651009 4.64899864 0.00651009 5.66418457 0.00628662 C7.86644207 0.00698571 10.06861596 0.01477787 12.27085876 0.02259827 C13.79400588 0.02446246 15.31715359 0.02588636 16.84030151 0.02688599 C20.85657903 0.03071105 24.87282059 0.04054124 28.88908386 0.05158997 C32.98443617 0.06180433 37.07979427 0.06638366 41.17515564 0.07142639 C49.21618779 0.08216352 57.25719069 0.0992398 65.29820251 0.12025452 C66.68463914 2.89312777 66.44077102 5.16366769 66.45933533 8.26649475 C66.46894287 9.55800949 66.47855042 10.84952423 66.4884491 12.18017578 C66.49329632 13.59639815 66.49757533 15.01262257 66.50132751 16.42884827 C66.50707841 17.876119 66.51283615 19.32338972 66.51860046 20.7706604 C66.52910977 23.80622208 66.5349531 26.84175728 66.53843689 29.87733459 C66.54392591 33.76925659 66.56796253 37.66082948 66.59640884 41.55264187 C66.61502 44.54232817 66.62023996 47.53193005 66.62177277 50.52166939 C66.62480257 51.956619 66.63284218 53.39156701 66.64595795 54.82645988 C66.66298701 56.83244298 66.65929795 58.83856976 66.65464783 60.84461975 C66.66011627 62.55765541 66.66011627 62.55765541 66.66569519 64.30529785 C66.29820251 67.12025452 66.29820251 67.12025452 65.1758728 68.99693298 C62.37858808 70.67041644 60.14095102 70.43695972 56.89903259 70.36903381 C56.25485886 70.35971832 55.61068512 70.35040283 54.94699097 70.34080505 C52.82003442 70.30645848 50.69421878 70.25056424 48.56773376 70.19447327 C47.09230978 70.16643773 45.61685968 70.13974757 44.14138794 70.11434937 C40.25959868 70.04391106 36.37843382 69.95519105 32.49711609 69.86268616 C28.53584409 69.77150365 24.57425446 69.69757736 20.61265564 69.62220764 C12.84075678 69.47179771 5.06943666 69.30207711 -2.70179749 69.12025452 C-4.1050108 66.31382789 -3.82904833 63.98958536 -3.83119202 60.85047913 C-3.83434418 59.53248825 -3.83749634 58.21449738 -3.84074402 56.85656738 C-3.83895437 55.41191067 -3.83690345 53.96725427 -3.83460999 52.52259827 C-3.83528326 51.04811589 -3.83625348 49.57363361 -3.83750916 48.09915161 C-3.83898456 45.00811202 -3.83683629 41.9171013 -3.83216858 38.82606506 C-3.82646638 34.85560532 -3.82975437 30.8852131 -3.83574104 26.91475582 C-3.83934663 23.87025438 -3.83820817 20.82576908 -3.83561325 17.78126717 C-3.83494423 16.31677302 -3.83577153 14.85227742 -3.8380928 13.38778496 C-3.84061979 11.34540203 -3.83608836 9.303014 -3.83119202 7.26063538 C-3.83039642 6.09640549 -3.82960083 4.9321756 -3.82878113 3.73266602 C-3.65529467 0.16356052 -3.57974665 0.15933122 0 0 Z " fill="#01D1FE" transform="translate(98.70179748535156,729.8797454833984)"/>
<path d="M0 0 C22.77 0 45.54 0 69 0 C69.020625 11.199375 69.04125 22.39875 69.0625 33.9375 C69.071604 37.47847412 69.08070801 41.01944824 69.09008789 44.66772461 C69.09460449 48.97961426 69.09460449 48.97961426 69.09544373 50.99586487 C69.09698297 52.40915745 69.10050751 53.8224487 69.10557556 55.23573303 C69.11285548 57.37194107 69.11390734 59.5080686 69.11352539 61.64428711 C69.115746 62.85007919 69.11796661 64.05587128 69.12025452 65.29820251 C69 68 69 68 68 69 C65.91924591 69.09943972 63.83508152 69.12799596 61.75195312 69.12939453 C61.09992416 69.13114685 60.4478952 69.13289917 59.77610779 69.13470459 C57.61112847 69.13912204 55.44623021 69.13618551 53.28125 69.1328125 C51.78291813 69.13348557 50.28458637 69.13445562 48.78625488 69.13571167 C45.64216067 69.1371885 42.49809483 69.13503458 39.35400391 69.13037109 C35.31513461 69.1246738 31.27633176 69.12795289 27.2374649 69.13394356 C24.1423492 69.13754958 21.04724935 69.13641039 17.95213318 69.13381577 C16.46251925 69.13314661 14.9729039 69.13397452 13.48329163 69.13629532 C11.40483765 69.13882253 9.32649269 69.13498033 7.24804688 69.12939453 C5.4705304 69.12820114 5.4705304 69.12820114 3.65710449 69.12698364 C1 69 1 69 0 68 C-0.0942174 65.88318683 -0.11742761 63.76319242 -0.11352539 61.64428711 C-0.11364593 60.97013795 -0.11376646 60.29598879 -0.11389065 59.60141087 C-0.11314174 57.41002209 -0.10551454 55.2187174 -0.09765625 53.02734375 C-0.09618676 51.678101 -0.09516609 50.32885769 -0.09460449 48.97961426 C-0.0893524 43.9655675 -0.0753913 38.95153293 -0.0625 33.9375 C-0.041875 22.738125 -0.02125 11.53875 0 0 Z " fill="#FEFEFE" transform="translate(981,586)"/>
<path d="M0 0 C22.44 0 44.88 0 68 0 C69.12638196 3.37914588 69.08275745 5.83914873 69.02172852 9.39916992 C69.01193686 10.05373578 69.00214521 10.70830164 68.99205685 11.38270283 C68.95921623 13.49873663 68.91920007 15.61456512 68.87890625 17.73046875 C68.85824097 19.02488892 68.83757568 20.31930908 68.81628418 21.6529541 C68.7373975 26.49789904 68.64939573 31.34269209 68.5625 36.1875 C68.376875 47.015625 68.19125 57.84375 68 69 C45.56 69 23.12 69 0 69 C-0.185625 57.98625 -0.37125 46.9725 -0.5625 35.625 C-0.65446655 30.40550537 -0.65446655 30.40550537 -0.74829102 25.08056641 C-0.79223763 22.33757161 -0.83580256 19.59457067 -0.87890625 16.8515625 C-0.89227524 16.13616302 -0.90564423 15.42076355 -0.91941833 14.6836853 C-0.95830576 12.58165034 -0.99074571 10.47960572 -1.02172852 8.37744141 C-1.04171402 7.19163483 -1.06169952 6.00582825 -1.08229065 4.78408813 C-1 2 -1 2 0 0 Z " fill="#FEFEFE" transform="translate(597,234)"/>
<path d="M0 0 C22.44 0 44.88 0 68 0 C68 22.44 68 44.88 68 68 C45.56 68 23.12 68 0 68 C0 45.56 0 23.12 0 0 Z " fill="#F8FDFD" transform="translate(755,428)"/>
<path d="M0 0 C7.60773883 6.68755236 11.95275719 13.92052135 12.60546875 24.046875 C12.92443616 32.07970051 12.83832548 39.0987778 8.29296875 46.015625 C7.63941406 47.05589844 7.63941406 47.05589844 6.97265625 48.1171875 C1.15586774 56.60397729 -6.69451509 61.68895675 -16.70703125 64.015625 C-27.81610692 65.32729899 -36.83095227 62.82749956 -45.70703125 56.015625 C-53.50110668 49.195809 -58.10884984 41.28726777 -58.95703125 30.9765625 C-59.32988946 21.02590892 -57.00701154 12.84803293 -50.70703125 5.015625 C-36.45131808 -9.69994989 -16.87795647 -12.7725076 0 0 Z " fill="#01D1FD" transform="translate(88.70703125,173.984375)"/>
<path d="M0 0 C8.3945244 7.04299096 12.39797644 16.99486609 13.625 27.6875 C13.13815552 37.70838224 9.21807831 46.80155231 2.1875 53.875 C-6.38491919 61.55305262 -15.24819001 64.27862428 -26.68359375 64.15234375 C-36.4645306 63.28536932 -44.48329231 57.61540817 -51.0625 50.625 C-57.05875721 43.27264102 -59.71255548 33.25194168 -58.8125 23.875 C-57.4332711 17.04401592 -54.8515954 11.51264977 -50.8125 5.875 C-50.131875 4.84375 -49.45125 3.8125 -48.75 2.75 C-36.71354045 -11.33111454 -13.82454206 -9.74630215 0 0 Z " fill="#FEFEFE" transform="translate(540.8125,626.125)"/>
<path d="M0 0 C44.88 0 89.76 0 136 0 C136 45.21 136 90.42 136 137 C91.12 137 46.24 137 0 137 C0 91.79 0 46.58 0 0 Z M1 10 C1 49.6 1 89.2 1 130 C43.24 130 85.48 130 129 130 C129 90.4 129 50.8 129 10 C86.76 10 44.52 10 1 10 Z " fill="#01D1FA" transform="translate(687,978)"/>
<path d="M0 0 C0.94463985 -0.00720654 1.88927971 -0.01441309 2.86254501 -0.02183801 C4.42220175 -0.01077658 4.42220175 -0.01077658 6.0133667 0.00050831 C7.11637241 -0.0034661 8.21937813 -0.0074405 9.35580826 -0.01153535 C13.07089172 -0.02119944 16.78559829 -0.00931513 20.50067139 0.00241566 C23.15632153 -0.00001095 25.81194631 -0.00361224 28.46759033 -0.00864697 C34.94330384 -0.01814654 41.4189061 -0.01152504 47.89461136 0.00061598 C55.43144761 0.01422129 62.96825722 0.01259942 70.50510263 0.01048265 C83.95026301 0.00729107 97.39537046 0.01897013 110.84051514 0.03854847 C123.89521904 0.05755335 136.94986089 0.06463623 150.00457764 0.05905628 C164.21085962 0.05300211 178.4171143 0.05316892 192.62339401 0.06454211 C194.1374588 0.06574944 195.65152359 0.06695543 197.16558838 0.06816006 C197.91059105 0.0687636 198.65559372 0.06936713 199.42317224 0.06998896 C204.6801689 0.07387265 209.93715542 0.07347274 215.19415283 0.07157421 C221.59826697 0.06945478 228.00232669 0.07465718 234.40642548 0.08918776 C237.67562716 0.09644464 240.94473305 0.09943157 244.21394348 0.0959444 C247.75329327 0.09274087 251.29240117 0.10175828 254.83172607 0.1140337 C255.87149723 0.11025438 256.91126839 0.10647505 257.98254776 0.1025812 C259.39950754 0.11132949 259.39950754 0.11132949 260.84509277 0.12025452 C261.66252331 0.12112129 262.47995384 0.12198807 263.322155 0.12288111 C265.42254639 0.37473011 265.42254639 0.37473011 268.42254639 2.37473011 C268.79629254 4.36489773 268.79629254 4.36489773 268.79448318 6.86316395 C268.80436795 8.28851239 268.80436795 8.28851239 268.81445241 9.74265575 C268.80639601 10.79380377 268.7983396 11.84495178 268.79003906 12.92795277 C268.79494232 14.59448871 268.79494232 14.59448871 268.79994464 16.29469204 C268.80726699 20.04286159 268.79302821 23.79064652 268.7789917 27.53879261 C268.77978198 30.21562132 268.78175284 32.89242502 268.78518677 35.56924915 C268.7908301 42.10024966 268.78048655 48.63113312 268.76489881 55.16211367 C268.74739279 62.76143153 268.74594025 70.36072643 268.74528322 77.96006131 C268.74359379 91.51562731 268.72776225 105.07113986 268.70379639 118.62668324 C268.6805371 131.79205233 268.66637184 144.95738751 268.66278076 158.12277699 C268.66255799 158.93358353 268.66233523 159.74439007 268.66210571 160.57976651 C268.66166312 162.21305764 268.6612211 163.84634876 268.66077964 165.47963989 C268.66056007 166.28525678 268.66034051 167.09087368 268.66011429 167.92090321 C268.65979031 169.12620109 268.65979031 169.12620109 268.65945978 170.35584843 C268.65576148 182.88557051 268.64440156 195.41528709 268.63198389 207.94500315 C268.62754401 212.49245069 268.62410764 217.0398977 268.62136176 221.58734655 C268.61693459 228.79988772 268.60918017 236.0124086 268.59458736 243.22493696 C268.58796773 246.52233733 268.58343714 249.81971621 268.58212662 253.1171236 C268.58038976 256.68527834 268.57253027 260.25336632 268.56298828 263.82150745 C268.564288 265.39822948 268.564288 265.39822948 268.56561399 267.00680447 C268.56177284 267.95703676 268.55793169 268.90726906 268.55397415 269.88629627 C268.55210441 271.12293805 268.55210441 271.12293805 268.55019689 272.38456249 C268.42254639 274.37473011 268.42254639 274.37473011 267.42254639 276.37473011 C232.66098296 276.3975954 197.89942124 276.41522778 163.13785193 276.42579544 C159.03833275 276.42704622 154.93881359 276.42834053 150.83929443 276.42966175 C150.02311891 276.42992406 149.20694339 276.43018637 148.36603528 276.43045663 C135.13296215 276.43481355 121.89989335 276.44270121 108.6668228 276.45188291 C95.09875935 276.46121885 81.53069817 276.46678559 67.96263164 276.4688186 C59.5835516 276.47019396 51.20448378 276.4745452 42.8254075 276.48264658 C37.08750188 276.4879133 31.34960262 276.48953457 25.61169476 276.48823149 C22.2962 276.48758799 18.98073133 276.48914534 15.66523933 276.49393559 C12.07912096 276.49886541 8.4930561 276.49773104 4.90693665 276.49498463 C3.8476206 276.49789747 2.78830456 276.50081031 1.69688803 276.50381142 C0.74392999 276.50182037 -0.20902805 276.49982932 -1.19086361 276.49777794 C-2.01979309 276.49815766 -2.84872257 276.49853738 -3.70277113 276.49892861 C-5.57745361 276.37473011 -5.57745361 276.37473011 -6.57745361 275.37473011 C-6.68178655 273.92345217 -6.71693612 272.46714114 -6.72449875 271.01213741 C-6.73182329 270.06451286 -6.73914783 269.11688832 -6.74669433 268.14054787 C-6.74971879 267.08716914 -6.75274326 266.0337904 -6.75585938 264.9484911 C-6.76291405 263.83902713 -6.76996872 262.72956316 -6.77723718 261.58647907 C-6.79976906 257.83768379 -6.81506662 254.08889336 -6.8303833 250.34006214 C-6.84486226 247.66501033 -6.8597178 244.98996285 -6.87498474 242.31491566 C-6.91543124 235.02577197 -6.9483068 227.73660581 -6.97957134 220.44741774 C-6.99909121 215.89932758 -7.02007636 211.35124493 -7.04132843 206.80316257 C-7.09984528 194.22040513 -7.15645895 181.63764239 -7.20617294 169.05484676 C-7.20936012 168.24894631 -7.2125473 167.44304586 -7.21583106 166.61272418 C-7.21902428 165.8048528 -7.22221751 164.99698143 -7.2255075 164.1646291 C-7.23197989 162.52746875 -7.23845543 160.89030841 -7.24493408 159.25314808 C-7.24814613 158.44105329 -7.25135817 157.62895851 -7.25466755 156.79225479 C-7.30709495 143.62843116 -7.37305804 130.46471288 -7.44485292 117.30098201 C-7.51830255 103.79845697 -7.58050674 90.29591852 -7.63135648 76.79328907 C-7.66018954 69.20701668 -7.69391235 61.62083493 -7.74001312 54.03464603 C-7.77920967 47.57562494 -7.80817516 41.11666118 -7.82364073 34.65753783 C-7.83184627 31.35991468 -7.84660973 28.0625481 -7.87115288 24.76500034 C-7.89694175 21.19486244 -7.90436806 17.6251552 -7.90698242 14.05493641 C-7.91892977 13.00601912 -7.93087713 11.95710182 -7.94318652 10.87639916 C-7.94008007 9.92355912 -7.93697362 8.97071907 -7.93377304 7.98900509 C-7.93740789 7.16441488 -7.94104274 6.33982468 -7.94478774 5.49024689 C-7.57745361 3.37473011 -7.57745361 3.37473011 -6.3412745 1.60975856 C-4.08043771 0.02671927 -2.74985054 -0.00018507 0 0 Z M50.42254639 3.37473011 C50.42254639 4.03473011 50.42254639 4.69473011 50.42254639 5.37473011 C49.10254639 5.37473011 47.78254639 5.37473011 46.42254639 5.37473011 C46.42254639 4.71473011 46.42254639 4.05473011 46.42254639 3.37473011 C45.76254639 3.37473011 45.10254639 3.37473011 44.42254639 3.37473011 C44.42254639 4.03473011 44.42254639 4.69473011 44.42254639 5.37473011 C43.76254639 5.37473011 43.10254639 5.37473011 42.42254639 5.37473011 C42.42254639 4.71473011 42.42254639 4.05473011 42.42254639 3.37473011 C40.44254639 3.37473011 38.46254639 3.37473011 36.42254639 3.37473011 C36.42254639 4.03473011 36.42254639 4.69473011 36.42254639 5.37473011 C35.76254639 5.37473011 35.10254639 5.37473011 34.42254639 5.37473011 C33.92754639 4.38473011 33.92754639 4.38473011 33.42254639 3.37473011 C31.77254639 4.03473011 30.12254639 4.69473011 28.42254639 5.37473011 C28.42254639 4.71473011 28.42254639 4.05473011 28.42254639 3.37473011 C23.14254639 3.37473011 17.86254639 3.37473011 12.42254639 3.37473011 C12.42254639 4.03473011 12.42254639 4.69473011 12.42254639 5.37473011 C10.44254639 5.37473011 8.46254639 5.37473011 6.42254639 5.37473011 C6.42254639 4.71473011 6.42254639 4.05473011 6.42254639 3.37473011 C3.12254639 3.37473011 -0.17745361 3.37473011 -3.57745361 3.37473011 C-3.57745361 92.47473011 -3.57745361 181.57473011 -3.57745361 273.37473011 C-0.34424468 274.18303234 1.82779658 274.49930391 5.06895828 274.49777794 C6.47121784 274.50076425 6.47121784 274.50076425 7.90180588 274.50381088 C9.43637877 274.49944189 9.43637877 274.49944189 11.00195312 274.49498463 C12.63247116 274.49626865 12.63247116 274.49626865 14.29592896 274.49757862 C17.9621747 274.49923827 21.62837511 274.49370292 25.2946167 274.4882555 C27.95837886 274.48794928 30.62213828 274.48803802 33.28590012 274.48862076 C39.70791307 274.4891527 46.12991205 274.48453261 52.55192141 274.47811943 C59.97933815 274.47092402 67.40674648 274.47012493 74.83416748 274.4693346 C94.44696267 274.46408265 114.05975474 274.45012155 133.67254639 274.43723011 C177.48004639 274.41660511 221.28754639 274.39598011 266.42254639 274.37473011 C266.42254639 185.60473011 266.42254639 96.83473011 266.42254639 5.37473011 C265.76254639 5.37473011 265.10254639 5.37473011 264.42254639 5.37473011 C264.42254639 4.71473011 264.42254639 4.05473011 264.42254639 3.37473011 C263.10254639 3.37473011 261.78254639 3.37473011 260.42254639 3.37473011 C260.42254639 4.03473011 260.42254639 4.69473011 260.42254639 5.37473011 C259.76254639 5.37473011 259.10254639 5.37473011 258.42254639 5.37473011 C258.42254639 4.71473011 258.42254639 4.05473011 258.42254639 3.37473011 C257.55629639 3.59129261 257.55629639 3.59129261 256.67254639 3.81223011 C254.58921305 4.33306344 252.50587972 4.85389678 250.42254639 5.37473011 C250.42254639 4.71473011 250.42254639 4.05473011 250.42254639 3.37473011 C249.76254639 3.37473011 249.10254639 3.37473011 248.42254639 3.37473011 C248.42254639 4.03473011 248.42254639 4.69473011 248.42254639 5.37473011 C247.76254639 5.37473011 247.10254639 5.37473011 246.42254639 5.37473011 C246.42254639 4.71473011 246.42254639 4.05473011 246.42254639 3.37473011 C241.00493263 3.20310683 235.58712404 3.04312459 230.16888428 2.89255238 C228.33741687 2.84017925 226.50602752 2.78497667 224.67474365 2.72653675 C214.79460932 2.41327084 205.00690841 2.32845613 195.13494873 2.87692738 C181.38927674 3.54783276 167.66214003 3.39694518 153.90556693 3.24126339 C150.32987726 3.20240165 146.75411935 3.17141274 143.17835999 3.13974476 C134.92142036 3.06544033 126.66457996 2.98250923 118.40773773 2.89815998 C107.82173653 2.79021309 97.23571942 2.68496442 86.64958984 2.59034491 C82.40757775 2.55211038 78.16565679 2.50881376 73.92373598 2.46156025 C70.68859449 2.42672248 67.45339491 2.39833439 64.21820068 2.36887074 C63.04592926 2.35435368 61.87365784 2.33983662 60.66586304 2.32487965 C59.60251236 2.316395 58.53916168 2.30791035 57.44358826 2.29916859 C56.51663997 2.28957363 55.58969168 2.27997868 54.63465405 2.27009296 C52.38041487 2.22727372 52.38041487 2.22727372 50.42254639 3.37473011 Z " fill="#0ED2F7" transform="translate(603.5774536132813,378.62526988983154)"/>
<path d="M0 0 C44.88 0 89.76 0 136 0 C136 45.21 136 90.42 136 137 C91.12 137 46.24 137 0 137 C0 91.79 0 46.58 0 0 Z M1 2 C1 45.56 1 89.12 1 134 C44.56 134 88.12 134 133 134 C133 131.36 133 128.72 133 126 C132.34 126 131.68 126 131 126 C131 89.04 131 52.08 131 14 C132.32 14 133.64 14 135 14 C135 12.02 135 10.04 135 8 C134.34 8 133.68 8 133 8 C133 6.02 133 4.04 133 2 C89.44 2 45.88 2 1 2 Z " fill="#09CBFC" transform="translate(687,978)"/>
<path d="M0 0 C1.80868813 0.00333092 1.80868813 0.00333092 3.65391541 0.00672913 C4.64899864 0.00651009 4.64899864 0.00651009 5.66418457 0.00628662 C7.86644207 0.00698571 10.06861596 0.01477787 12.27085876 0.02259827 C13.79400588 0.02446246 15.31715359 0.02588636 16.84030151 0.02688599 C20.85657903 0.03071105 24.87282059 0.04054124 28.88908386 0.05158997 C32.98443617 0.06180433 37.07979427 0.06638366 41.17515564 0.07142639 C49.21618779 0.08216352 57.25719069 0.0992398 65.29820251 0.12025452 C66.68463914 2.89312777 66.44077102 5.16366769 66.45933533 8.26649475 C66.46894287 9.55800949 66.47855042 10.84952423 66.4884491 12.18017578 C66.49329632 13.59639815 66.49757533 15.01262257 66.50132751 16.42884827 C66.50707841 17.876119 66.51283615 19.32338972 66.51860046 20.7706604 C66.52910977 23.80622208 66.5349531 26.84175728 66.53843689 29.87733459 C66.54392591 33.76925659 66.56796253 37.66082948 66.59640884 41.55264187 C66.61502 44.54232817 66.62023996 47.53193005 66.62177277 50.52166939 C66.62480257 51.956619 66.63284218 53.39156701 66.64595795 54.82645988 C66.66298701 56.83244298 66.65929795 58.83856976 66.65464783 60.84461975 C66.66011627 62.55765541 66.66011627 62.55765541 66.66569519 64.30529785 C66.29820251 67.12025452 66.29820251 67.12025452 65.1758728 68.99693298 C62.37858808 70.67041644 60.14095102 70.43695972 56.89903259 70.36903381 C56.25485886 70.35971832 55.61068512 70.35040283 54.94699097 70.34080505 C52.82003442 70.30645848 50.69421878 70.25056424 48.56773376 70.19447327 C47.09230978 70.16643773 45.61685968 70.13974757 44.14138794 70.11434937 C40.25959868 70.04391106 36.37843382 69.95519105 32.49711609 69.86268616 C28.53584409 69.77150365 24.57425446 69.69757736 20.61265564 69.62220764 C12.84075678 69.47179771 5.06943666 69.30207711 -2.70179749 69.12025452 C-4.1050108 66.31382789 -3.82904833 63.98958536 -3.83119202 60.85047913 C-3.83434418 59.53248825 -3.83749634 58.21449738 -3.84074402 56.85656738 C-3.83895437 55.41191067 -3.83690345 53.96725427 -3.83460999 52.52259827 C-3.83528326 51.04811589 -3.83625348 49.57363361 -3.83750916 48.09915161 C-3.83898456 45.00811202 -3.83683629 41.9171013 -3.83216858 38.82606506 C-3.82646638 34.85560532 -3.82975437 30.8852131 -3.83574104 26.91475582 C-3.83934663 23.87025438 -3.83820817 20.82576908 -3.83561325 17.78126717 C-3.83494423 16.31677302 -3.83577153 14.85227742 -3.8380928 13.38778496 C-3.84061979 11.34540203 -3.83608836 9.303014 -3.83119202 7.26063538 C-3.83039642 6.09640549 -3.82960083 4.9321756 -3.82878113 3.73266602 C-3.65529467 0.16356052 -3.57974665 0.15933122 0 0 Z M13.29820251 2.12025452 C13.29820251 2.78025452 13.29820251 3.44025452 13.29820251 4.12025452 C9.00820251 4.12025452 4.71820251 4.12025452 0.29820251 4.12025452 C-0.67819179 7.04943744 -0.82315929 8.9105119 -0.81532288 11.95887756 C-0.81524734 12.93966782 -0.81517181 13.92045807 -0.81509399 14.93096924 C-0.80993271 15.98730057 -0.80477142 17.0436319 -0.79945374 18.13197327 C-0.79803879 19.21533463 -0.79662384 20.29869598 -0.79516602 21.41488647 C-0.78956308 24.87920377 -0.77701006 28.34345672 -0.76429749 31.80775452 C-0.75928286 34.15475879 -0.75471989 36.50176408 -0.75062561 38.84877014 C-0.73959269 44.6059536 -0.72285169 50.36309946 -0.70179749 56.12025452 C-1.36179749 56.12025452 -2.02179749 56.12025452 -2.70179749 56.12025452 C-2.70179749 58.76025452 -2.70179749 61.40025452 -2.70179749 64.12025452 C-2.04179749 64.12025452 -1.38179749 64.12025452 -0.70179749 64.12025452 C-0.70179749 64.78025452 -0.70179749 65.44025452 -0.70179749 66.12025452 C20.41820251 66.12025452 41.53820251 66.12025452 63.29820251 66.12025452 C64.36747333 62.91244206 64.38454734 60.73089053 64.31993103 57.36366272 C64.29983475 56.18266495 64.27973846 55.00166718 64.2590332 53.78488159 C64.23199814 52.50981247 64.20496307 51.23474335 64.17710876 49.92103577 C64.15349777 48.61571396 64.12988678 47.31039215 64.1055603 45.96551514 C64.04278477 42.49827723 63.97369979 39.03119264 63.90330505 35.56410217 C63.83256251 32.02494782 63.767781 28.48568494 63.70249939 24.94642639 C63.57357128 18.00424921 63.43742724 11.06223276 63.29820251 4.12025452 C59.33820251 4.12025452 55.37820251 4.12025452 51.29820251 4.12025452 C51.29820251 4.78025452 51.29820251 5.44025452 51.29820251 6.12025452 C50.63820251 6.12025452 49.97820251 6.12025452 49.29820251 6.12025452 C49.29820251 5.46025452 49.29820251 4.80025452 49.29820251 4.12025452 C44.71521986 3.92342014 40.13181054 3.73939456 35.54820251 3.55775452 C34.24624939 3.5016803 32.94429626 3.44560608 31.60289001 3.38783264 C30.35249939 3.3394928 29.10210876 3.29115295 27.81382751 3.24134827 C26.0856781 3.17065125 26.0856781 3.17065125 24.32261658 3.098526 C21.7350773 3.11711585 19.74469298 3.34063256 17.29820251 4.12025452 C17.29820251 3.46025452 17.29820251 2.80025452 17.29820251 2.12025452 C15.97820251 2.12025452 14.65820251 2.12025452 13.29820251 2.12025452 Z " fill="#12CFFA" transform="translate(98.70179748535156,729.8797454833984)"/>
<path d="M0 0 C86.46 0 172.92 0 262 0 C261.67 0.99 261.34 1.98 261 3 C259.68 3 258.36 3 257 3 C257 3.66 257 4.32 257 5 C256.34 5 255.68 5 255 5 C255 4.34 255 3.68 255 3 C254.4225 3.33 253.845 3.66 253.25 4 C251 5 251 5 247 5 C247 4.34 247 3.68 247 3 C246.34 3 245.68 3 245 3 C245 3.66 245 4.32 245 5 C244.34 5 243.68 5 243 5 C243 4.34 243 3.68 243 3 C236.13558764 2.97439475 229.27118785 2.95702733 222.40673828 2.94506836 C220.07730652 2.94007649 217.74787782 2.93328066 215.41845703 2.92456055 C212.04719275 2.91226722 208.67597031 2.9067201 205.3046875 2.90234375 C203.77254105 2.89460182 203.77254105 2.89460182 202.20944214 2.88670349 C196.93325626 2.88630497 191.72956919 3.0708183 186.47045898 3.5057373 C179.3947245 4.02545527 172.38481871 4.0992688 165.29345703 4.02172852 C164.00394135 4.01212097 162.71442566 4.00251343 161.38583374 3.99261475 C157.89911546 3.96651349 154.41249166 3.93366349 150.92584467 3.89946485 C147.26373679 3.86473852 143.60157911 3.83640856 139.93942261 3.80735779 C133.02664886 3.75157056 126.11393747 3.69015231 119.20123088 3.62663645 C111.3220114 3.55451976 103.4427425 3.48879396 95.56346345 3.42356598 C79.37557752 3.28941472 63.18777116 3.14736447 47 3 C47 3.66 47 4.32 47 5 C45.68 5 44.36 5 43 5 C43 4.34 43 3.68 43 3 C42.34 3 41.68 3 41 3 C41 3.66 41 4.32 41 5 C40.34 5 39.68 5 39 5 C39 4.34 39 3.68 39 3 C37.02 3 35.04 3 33 3 C33 3.66 33 4.32 33 5 C30.33333333 5 27.66666667 5 25 5 C25 4.34 25 3.68 25 3 C19.72 3 14.44 3 9 3 C9 3.66 9 4.32 9 5 C7.02 5 5.04 5 3 5 C2.67 4.01 2.34 3.02 2 2 C1.34 1.34 0.68 0.68 0 0 Z " fill="#09CBF3" transform="translate(607,379)"/>
<path d="M0 0 C44.88 0 89.76 0 136 0 C136 45.21 136 90.42 136 137 C91.12 137 46.24 137 0 137 C0 91.79 0 46.58 0 0 Z M1 2 C1 46.22 1 90.44 1 136 C45.22 136 89.44 136 135 136 C135 93.76 135 51.52 135 8 C134.34 8 133.68 8 133 8 C133 6.02 133 4.04 133 2 C89.44 2 45.88 2 1 2 Z " fill="#32BDDB" transform="translate(687,978)"/>
<path d="M0 0 C7.60773883 6.68755236 11.95275719 13.92052135 12.60546875 24.046875 C12.92443616 32.07970051 12.83832548 39.0987778 8.29296875 46.015625 C7.63941406 47.05589844 7.63941406 47.05589844 6.97265625 48.1171875 C1.15586774 56.60397729 -6.69451509 61.68895675 -16.70703125 64.015625 C-27.81610692 65.32729899 -36.83095227 62.82749956 -45.70703125 56.015625 C-53.50110668 49.195809 -58.10884984 41.28726777 -58.95703125 30.9765625 C-59.32988946 21.02590892 -57.00701154 12.84803293 -50.70703125 5.015625 C-36.45131808 -9.69994989 -16.87795647 -12.7725076 0 0 Z M-36.70703125 -1.984375 C-36.70703125 -1.324375 -36.70703125 -0.664375 -36.70703125 0.015625 C-38.02703125 0.015625 -39.34703125 0.015625 -40.70703125 0.015625 C-40.70703125 1.335625 -40.70703125 2.655625 -40.70703125 4.015625 C-41.36703125 4.015625 -42.02703125 4.015625 -42.70703125 4.015625 C-42.70703125 3.355625 -42.70703125 2.695625 -42.70703125 2.015625 C-43.36703125 2.015625 -44.02703125 2.015625 -44.70703125 2.015625 C-44.70703125 3.335625 -44.70703125 4.655625 -44.70703125 6.015625 C-44.04703125 6.015625 -43.38703125 6.015625 -42.70703125 6.015625 C-42.70703125 7.335625 -42.70703125 8.655625 -42.70703125 10.015625 C-43.36703125 10.015625 -44.02703125 10.015625 -44.70703125 10.015625 C-44.70703125 9.355625 -44.70703125 8.695625 -44.70703125 8.015625 C-45.36703125 8.015625 -46.02703125 8.015625 -46.70703125 8.015625 C-46.70703125 7.355625 -46.70703125 6.695625 -46.70703125 6.015625 C-47.36703125 6.015625 -48.02703125 6.015625 -48.70703125 6.015625 C-48.70703125 7.335625 -48.70703125 8.655625 -48.70703125 10.015625 C-50.02703125 10.015625 -51.34703125 10.015625 -52.70703125 10.015625 C-52.85140625 11.315 -52.99578125 12.614375 -53.14453125 13.953125 C-53.58203125 17.890625 -53.58203125 17.890625 -54.70703125 19.015625 C-54.78016692 21.54611902 -54.79950652 24.04867337 -54.76953125 26.578125 C-54.76501953 27.28904297 -54.76050781 27.99996094 -54.75585938 28.73242188 C-54.74403989 30.49352513 -54.72610388 32.25458536 -54.70703125 34.015625 C-53.38703125 34.015625 -52.06703125 34.015625 -50.70703125 34.015625 C-50.70703125 34.675625 -50.70703125 35.335625 -50.70703125 36.015625 C-51.36703125 36.015625 -52.02703125 36.015625 -52.70703125 36.015625 C-52.70703125 36.675625 -52.70703125 37.335625 -52.70703125 38.015625 C-53.36703125 38.015625 -54.02703125 38.015625 -54.70703125 38.015625 C-54.70703125 39.335625 -54.70703125 40.655625 -54.70703125 42.015625 C-54.04703125 42.015625 -53.38703125 42.015625 -52.70703125 42.015625 C-52.70703125 43.335625 -52.70703125 44.655625 -52.70703125 46.015625 C-52.04703125 46.015625 -51.38703125 46.015625 -50.70703125 46.015625 C-50.37703125 47.335625 -50.04703125 48.655625 -49.70703125 50.015625 C-48.71703125 50.015625 -47.72703125 50.015625 -46.70703125 50.015625 C-46.70703125 50.675625 -46.70703125 51.335625 -46.70703125 52.015625 C-46.04703125 52.015625 -45.38703125 52.015625 -44.70703125 52.015625 C-44.41828125 52.634375 -44.12953125 53.253125 -43.83203125 53.890625 C-42.76983083 56.14888265 -42.76983083 56.14888265 -40.70703125 58.015625 C-37.62355299 58.18243609 -37.62355299 58.18243609 -34.70703125 58.015625 C-34.70703125 58.675625 -34.70703125 59.335625 -34.70703125 60.015625 C-31.40703125 60.015625 -28.10703125 60.015625 -24.70703125 60.015625 C-24.70703125 60.675625 -24.70703125 61.335625 -24.70703125 62.015625 C-22.72703125 62.015625 -20.74703125 62.015625 -18.70703125 62.015625 C-18.70703125 61.355625 -18.70703125 60.695625 -18.70703125 60.015625 C-16.72703125 60.015625 -14.74703125 60.015625 -12.70703125 60.015625 C-12.70703125 59.355625 -12.70703125 58.695625 -12.70703125 58.015625 C-11.61390625 58.056875 -10.52078125 58.098125 -9.39453125 58.140625 C-5.61810896 58.33637166 -5.61810896 58.33637166 -2.70703125 56.015625 C-2.70703125 55.355625 -2.70703125 54.695625 -2.70703125 54.015625 C-2.04703125 54.015625 -1.38703125 54.015625 -0.70703125 54.015625 C-0.70703125 53.355625 -0.70703125 52.695625 -0.70703125 52.015625 C-0.04703125 52.015625 0.61296875 52.015625 1.29296875 52.015625 C3.04662515 49.67620156 3.04662515 49.67620156 4.29296875 47.015625 C3.96296875 46.355625 3.63296875 45.695625 3.29296875 45.015625 C3.95296875 45.015625 4.61296875 45.015625 5.29296875 45.015625 C5.29296875 44.025625 5.29296875 43.035625 5.29296875 42.015625 C5.95296875 42.015625 6.61296875 42.015625 7.29296875 42.015625 C7.29296875 41.355625 7.29296875 40.695625 7.29296875 40.015625 C7.95296875 40.015625 8.61296875 40.015625 9.29296875 40.015625 C9.29296875 32.095625 9.29296875 24.175625 9.29296875 16.015625 C8.63296875 16.015625 7.97296875 16.015625 7.29296875 16.015625 C7.29296875 14.695625 7.29296875 13.375625 7.29296875 12.015625 C6.63296875 12.015625 5.97296875 12.015625 5.29296875 12.015625 C4.79796875 10.530625 4.79796875 10.530625 4.29296875 9.015625 C3.63296875 8.355625 2.97296875 7.695625 2.29296875 7.015625 C0.29296875 5.015625 0.29296875 5.015625 -0.70703125 2.015625 C-1.69703125 2.015625 -2.68703125 2.015625 -3.70703125 2.015625 C-3.70703125 1.355625 -3.70703125 0.695625 -3.70703125 0.015625 C-4.69703125 0.015625 -5.68703125 0.015625 -6.70703125 0.015625 C-6.70703125 -0.644375 -6.70703125 -1.304375 -6.70703125 -1.984375 C-8.68703125 -2.314375 -10.66703125 -2.644375 -12.70703125 -2.984375 C-12.70703125 -3.314375 -12.70703125 -3.644375 -12.70703125 -3.984375 C-16.14446043 -4.04240198 -19.58176378 -4.07797986 -23.01953125 -4.109375 C-24.48422852 -4.13451172 -24.48422852 -4.13451172 -25.97851562 -4.16015625 C-27.38520508 -4.16982422 -27.38520508 -4.16982422 -28.8203125 -4.1796875 C-30.11642456 -4.19539795 -30.11642456 -4.19539795 -31.4387207 -4.21142578 C-33.98883846 -4.13527668 -33.98883846 -4.13527668 -36.70703125 -1.984375 Z " fill="#15CCEF" transform="translate(88.70703125,173.984375)"/>
<path d="M0 0 C1.32 0.33 2.64 0.66 4 1 C4 90.76 4 180.52 4 273 C2 271 2 271 1.75160301 269.03959119 C1.75236245 268.22926801 1.75312189 267.41894482 1.75390434 266.58406639 C1.7479312 265.18299332 1.7479312 265.18299332 1.74183738 263.75361574 C1.74766307 262.72055822 1.75348875 261.68750071 1.75949097 260.62313843 C1.75778212 259.5311211 1.75607327 258.43910377 1.75431263 257.313995 C1.75100084 253.63032584 1.76204923 249.94683616 1.77294922 246.26318359 C1.77351297 243.63238021 1.77319749 241.00157651 1.77206421 238.37077332 C1.77101396 232.69423924 1.77730508 227.01775103 1.78853989 221.34122849 C1.8047731 213.13387084 1.81000065 204.92653545 1.81251587 196.71916349 C1.8168964 183.40423443 1.83021521 170.08932983 1.84912109 156.77441406 C1.86747063 143.83789187 1.88163166 130.90137632 1.89013672 117.96484375 C1.89066217 117.16784138 1.89118761 116.37083901 1.89172898 115.54968505 C1.894339 111.55147933 1.89686643 107.55327357 1.89935279 103.55506778 C1.92009645 70.37002737 1.9553317 37.18501696 2 4 C1.34 4 0.68 4 0 4 C0 2.68 0 1.36 0 0 Z " fill="#22D5F7" transform="translate(868,380)"/>
<path d="M0 0 C22.44 0 44.88 0 68 0 C68.495 2.97 68.495 2.97 69 6 C68.01 6 67.02 6 66 6 C66 5.34 66 4.68 66 4 C63.27521848 2.63760924 61.13159145 2.88030042 58.08154297 2.88647461 C56.21983963 2.88658791 56.21983963 2.88658791 54.32052612 2.88670349 C52.96107951 2.8918105 51.60163331 2.8970265 50.2421875 2.90234375 C48.85499116 2.90420858 47.46779416 2.90563218 46.08059692 2.90663147 C42.42765488 2.91045152 38.77475252 2.92027745 35.12182617 2.93133545 C31.39502499 2.94156056 27.66821741 2.94613145 23.94140625 2.95117188 C16.62758606 2.96190017 9.31379859 2.97897046 2 3 C2.00222061 3.77007889 2.00444122 4.54015778 2.00672913 5.33357239 C2.02675881 12.58769659 2.04198783 19.8418074 2.05181217 27.09595203 C2.05703273 30.82545462 2.0641154 34.55493438 2.07543945 38.28442383 C2.08629767 41.88297945 2.09228308 45.4815131 2.09487724 49.08008385 C2.09672619 50.45361362 2.10033666 51.82714218 2.10573006 53.20066261 C2.11297928 55.12310236 2.11340839 57.04556417 2.11352539 58.96801758 C2.115746 60.06277908 2.11796661 61.15754059 2.12025452 62.28547668 C2 65 2 65 1 68 C21.13 68 41.26 68 62 68 C62 67.34 62 66.68 62 66 C63.98 66 65.96 66 68 66 C68.33 66.99 68.66 67.98 69 69 C68 70 68 70 65.29820251 70.12025452 C64.09241043 70.11803391 62.88661835 70.11581329 61.64428711 70.11352539 C60.98089828 70.11367142 60.31750946 70.11381744 59.63401794 70.1139679 C57.43176044 70.11326881 55.22958655 70.10547665 53.02734375 70.09765625 C51.50419664 70.09579206 49.98104893 70.09436816 48.457901 70.09336853 C44.44162349 70.08954346 40.42538192 70.07971328 36.40911865 70.06866455 C32.31376634 70.05845019 28.21840824 70.05387086 24.12304688 70.04882812 C16.08201472 70.038091 8.04101183 70.02101472 0 70 C-1.40133204 67.19733592 -1.12724805 64.88114662 -1.12939453 61.74609375 C-1.13254669 60.43133057 -1.13569885 59.11656738 -1.13894653 57.76196289 C-1.1371567 56.32047492 -1.13510573 54.87898726 -1.1328125 53.4375 C-1.13348584 51.96541325 -1.13445611 50.4933266 -1.13571167 49.02124023 C-1.13718723 45.9343968 -1.13503862 42.84758227 -1.13037109 39.76074219 C-1.12467388 35.79934894 -1.12795364 31.83802345 -1.13394356 27.87663269 C-1.13755298 24.83637988 -1.13640882 21.79614319 -1.13381577 18.75588989 C-1.13314755 17.29501335 -1.13397124 15.83413535 -1.13629532 14.3732605 C-1.13882803 12.33347602 -1.13428493 10.29368643 -1.12939453 8.25390625 C-1.12859894 7.09189697 -1.12780334 5.9298877 -1.12698364 4.73266602 C-1 2 -1 2 0 0 Z " fill="#22D3F9" transform="translate(450,1114)"/>
<path d="M0 0 C0.99 0 1.98 0 3 0 C3.04628239 8.83153988 3.08184825 17.6630382 3.10362434 26.49467278 C3.11407426 30.59528757 3.12825537 34.69581958 3.15087891 38.79638672 C3.1725644 42.75155581 3.18455952 46.70664511 3.18975449 50.66186905 C3.19345799 52.17299786 3.20068975 53.68412217 3.21146011 55.19521713 C3.22591823 57.30716232 3.22798037 59.41877524 3.22705078 61.53076172 C3.231492 62.73433319 3.23593323 63.93790466 3.24050903 65.177948 C3 68 3 68 1 70 C-1.822052 70.24050903 -1.822052 70.24050903 -5.46923828 70.22705078 C-6.13277313 70.22734283 -6.79630798 70.22763489 -7.47994995 70.22793579 C-9.67686972 70.22654056 -11.87345186 70.21097067 -14.0703125 70.1953125 C-15.59202896 70.19158305 -17.11374781 70.18873576 -18.63546753 70.18673706 C-22.64356092 70.17909523 -26.6515097 70.15944213 -30.6595459 70.1373291 C-34.74827112 70.11688244 -38.83701966 70.10773788 -42.92578125 70.09765625 C-50.95058724 70.07619667 -58.97527564 70.04205421 -67 70 C-67 69.34 -67 68.68 -67 68 C-44.89 68 -22.78 68 0 68 C0 45.56 0 23.12 0 0 Z " fill="#1EC8EB" transform="translate(823,428)"/>
<path d="M0 0 C2.4375 1 2.4375 1 4 2 C4 2.33 4 2.66 4 3 C0.7 3 -2.6 3 -6 3 C-6 3.66 -6 4.32 -6 5 C-6.66 5 -7.32 5 -8 5 C-8 91.46 -8 177.92 -8 267 C-8.33 267 -8.66 267 -9 267 C-9.19608026 233.41910475 -9.37636642 199.83816721 -9.53537826 166.25707663 C-9.55415136 162.29532593 -9.57305565 158.33357586 -9.59204102 154.37182617 C-9.59770733 153.18872312 -9.59770733 153.18872312 -9.60348812 151.98171899 C-9.66502062 139.1993695 -9.73718777 126.41710094 -9.8132638 113.63483068 C-9.89104995 100.52558703 -9.95745714 87.41632161 -10.01323253 74.30696565 C-10.04802831 66.21340779 -10.09177032 58.11999871 -10.14684484 50.02655301 C-10.18807921 43.82749549 -10.21350552 37.62846624 -10.2329216 31.42930412 C-10.24340557 28.88108389 -10.25908942 26.3328792 -10.28024101 23.78472519 C-10.30826052 20.3174476 -10.31792159 16.85060025 -10.32279968 13.38322449 C-10.34174389 11.85551675 -10.34174389 11.85551675 -10.36107081 10.29694623 C-10.35733619 8.90856186 -10.35733619 8.90856186 -10.35352612 7.49212933 C-10.35770304 6.69129915 -10.36187996 5.89046897 -10.36618346 5.06537122 C-9.34306017 -0.70531379 -5.00230908 -0.43879904 0 0 Z " fill="#1BCEF0" transform="translate(606,379)"/>
<path d="M0 0 C0.33 0.66 0.66 1.32 1 2 C9.17972535 1.89257229 17.35935555 1.77995404 25.53891563 1.66066074 C29.33678642 1.60543556 33.1346649 1.55201622 36.93261719 1.50268555 C40.59607367 1.45503599 44.25943546 1.402693 47.92277908 1.34705925 C49.32222773 1.32663837 50.72170235 1.30792483 52.12119675 1.29092598 C54.07744014 1.26687639 56.03359949 1.23625878 57.98974609 1.20532227 C59.66186661 1.18200584 59.66186661 1.18200584 61.36776733 1.15821838 C63.97890829 1.17418855 63.97890829 1.17418855 66 0 C66 1.32 66 2.64 66 4 C44.22 4 22.44 4 0 4 C0 2.68 0 1.36 0 0 Z " fill="#EBFCFB" transform="translate(756,492)"/>
<path d="M0 0 C0.94617188 0.2165625 1.89234375 0.433125 2.8671875 0.65625 C18.3185741 3.99185023 32.67442025 4.13938488 48 0 C48 0.66 48 1.32 48 2 C47.34 2 46.68 2 46 2 C46 2.66 46 3.32 46 4 C38.84807616 5.89425303 32.31511339 6.24602079 24.9375 6.125 C23.88111328 6.11597656 22.82472656 6.10695313 21.73632812 6.09765625 C19.15730747 6.0743167 16.5787801 6.04157775 14 6 C14 5.34 14 4.68 14 4 C10.04 4 6.08 4 2 4 C2 3.34 2 2.68 2 2 C1.34 2 0.68 2 0 2 C0 1.34 0 0.68 0 0 Z " fill="#E7FCFA" transform="translate(312,424)"/>
<path d="M0 0 C7.04568973 10.5685346 6.3837936 26.06883527 4 38.125 C3.68571328 39.4214327 3.36135719 40.71589141 3 42 C2.67 42 2.34 42 2 42 C2 30.78 2 19.56 2 8 C1.34 8 0.68 8 0 8 C0 5.36 0 2.72 0 0 Z " fill="#2BC5EA" transform="translate(400,336)"/>
<path d="M0 0 C1.98 0 3.96 0 6 0 C6.495 1.485 6.495 1.485 7 3 C6 4 6 4 3.33616638 4.12025452 C1.5541256 4.1169236 1.5541256 4.1169236 -0.26391602 4.11352539 C-1.2443689 4.11374443 -1.2443689 4.11374443 -2.24462891 4.1139679 C-4.41442128 4.11326883 -6.58412879 4.10547678 -8.75390625 4.09765625 C-10.25463311 4.09579205 -11.75536057 4.09436816 -13.25608826 4.09336853 C-17.21318226 4.08954352 -21.17023978 4.0797134 -25.12731934 4.06866455 C-29.16234849 4.05845006 -33.19738353 4.05387083 -37.23242188 4.04882812 C-45.15496469 4.03809111 -53.07747781 4.0210149 -61 4 C-61 3.67 -61 3.34 -61 3 C-40.87 2.67 -20.74 2.34 0 2 C0 1.34 0 0.68 0 0 Z " fill="#19C5ED" transform="translate(512,1180)"/>
<path d="M0 0 C0.33 0 0.66 0 1 0 C1 20.46 1 40.92 1 62 C0.67 61.34 0.34 60.68 0 60 C-1.98 60 -3.96 60 -6 60 C-6 59.34 -6 58.68 -6 58 C-4.02 57.505 -4.02 57.505 -2 57 C-2 54.69 -2 52.38 -2 50 C-1.67 50 -1.34 50 -1 50 C-1.03255208 52.05078125 -1.06510417 54.1015625 -1.09765625 56.15234375 C-1.20561184 58.01732141 -1.20561184 58.01732141 0 59 C0 39.53 0 20.06 0 0 Z " fill="#0ACAF6" transform="translate(518,1120)"/>
<path d="M0 0 C3.3326532 1.42095543 5.23606522 3.1165874 7.5625 5.875 C8.14128906 6.55304688 8.72007812 7.23109375 9.31640625 7.9296875 C10.93211201 9.91651825 12.4799399 11.93937141 14 14 C11.09399739 15.25664978 9.20395416 16 6 16 C6 15.34 6 14.68 6 14 C6.66 14 7.32 14 8 14 C8 12.68 8 11.36 8 10 C7.34 10 6.68 10 6 10 C6 9.34 6 8.68 6 8 C5.34 8 4.68 8 4 8 C4 7.34 4 6.68 4 6 C3.34 6 2.68 6 2 6 C2 6.66 2 7.32 2 8 C0.68 8 -0.64 8 -2 8 C-2 6.68 -2 5.36 -2 4 C-1.34 4 -0.68 4 0 4 C0 2.68 0 1.36 0 0 Z " fill="#DAFBFC" transform="translate(280,400)"/>
<path d="M0 0 C1.32 0 2.64 0 4 0 C4 1.32 4 2.64 4 4 C3.34 4 2.68 4 2 4 C2 3.34 2 2.68 2 2 C1.34 2 0.68 2 0 2 C0 21.8 0 41.6 0 62 C-0.33 62 -0.66 62 -1 62 C-1.02312764 54.06386213 -1.04091723 46.12773824 -1.05181217 38.19157505 C-1.05704008 34.50685502 -1.06413605 30.82215797 -1.07543945 27.13745117 C-1.08627162 23.58429169 -1.09227753 20.03115437 -1.09487724 16.47797966 C-1.0967309 15.11954334 -1.10035038 13.76110829 -1.10573006 12.40268135 C-1.11294475 10.50617777 -1.11340809 8.60965207 -1.11352539 6.71313477 C-1.115746 5.63169693 -1.11796661 4.55025909 -1.12025452 3.43605042 C-1 1 -1 1 0 0 Z " fill="#0ECEF8" transform="translate(452,1116)"/>
<path d="M0 0 C0 0.66 0 1.32 0 2 C-1.32 2 -2.64 2 -4 2 C-4 2.66 -4 3.32 -4 4 C-4.66 4 -5.32 4 -6 4 C-6 4.66 -6 5.32 -6 6 C-7.32 6 -8.64 6 -10 6 C-10 6.66 -10 7.32 -10 8 C-11.32 8 -12.64 8 -14 8 C-14 8.66 -14 9.32 -14 10 C-16.64 10 -19.28 10 -22 10 C-15.81358611 4.45355996 -8.50157902 -0.55091234 0 0 Z " fill="#1ECAEC" transform="translate(320,294)"/>
<path d="M0 0 C17.16 0 34.32 0 52 0 C50.68 0.33 49.36 0.66 48 1 C48 1.66 48 2.32 48 3 C47.34 3 46.68 3 46 3 C46 2.34 46 1.68 46 1 C45.4225 1.33 44.845 1.66 44.25 2 C42 3 42 3 38 3 C38 2.34 38 1.68 38 1 C37.34 1 36.68 1 36 1 C36 1.66 36 2.32 36 3 C35.34 3 34.68 3 34 3 C34 2.34 34 1.68 34 1 C22.78 1 11.56 1 0 1 C0 0.67 0 0.34 0 0 Z " fill="#0FCFF8" transform="translate(816,381)"/>
<path d="M0 0 C4.59448468 1.44955144 7.67557353 4.07382403 11.125 7.3125 C11.91197266 8.0230957 11.91197266 8.0230957 12.71484375 8.74804688 C15.76973058 11.57478393 18.05576789 14.31936749 20 18 C19.34 18 18.68 18 18 18 C18 17.34 18 16.68 18 16 C17.34 16 16.68 16 16 16 C16 15.34 16 14.68 16 14 C15.34 14 14.68 14 14 14 C14 13.34 14 12.68 14 12 C13.34 12 12.68 12 12 12 C12 11.34 12 10.68 12 10 C11.34 10 10.68 10 10 10 C10 9.34 10 8.68 10 8 C9.34 8 8.68 8 8 8 C8 7.34 8 6.68 8 6 C6.68 6 5.36 6 4 6 C4 6.66 4 7.32 4 8 C2.68 8 1.36 8 0 8 C0 6.68 0 5.36 0 4 C0.66 4 1.32 4 2 4 C2 3.34 2 2.68 2 2 C1.34 2 0.68 2 0 2 C0 1.34 0 0.68 0 0 Z " fill="#27C6E5" transform="translate(372,302)"/>
<path d="M0 0 C0.66 0.33 1.32 0.66 2 1 C1.52433594 1.75023437 1.52433594 1.75023437 1.0390625 2.515625 C-0.3648765 5.87241148 -0.46225654 9.16286294 -0.625 12.75 C-0.66367187 13.44738281 -0.70234375 14.14476562 -0.7421875 14.86328125 C-0.83598624 16.57510818 -0.91906174 18.28751682 -1 20 C0.32 20 1.64 20 3 20 C3 20.66 3 21.32 3 22 C2.34 22 1.68 22 1 22 C1 22.66 1 23.32 1 24 C-0.65 24.33 -2.3 24.66 -4 25 C-3.91262714 21.9570141 -3.80569374 18.91681634 -3.6875 15.875 C-3.66494141 15.0190625 -3.64238281 14.163125 -3.61914062 13.28125 C-3.40152861 8.13769325 -2.75300848 4.50223908 0 0 Z " fill="#0ACDF7" transform="translate(35,188)"/>
<path d="M0 0 C1.32 0 2.64 0 4 0 C1.76058904 8.53775428 -2.47675211 16.9845014 -10 22 C-10 20.68 -10 19.36 -10 18 C-9.01 18 -8.02 18 -7 18 C-6.67 15.69 -6.34 13.38 -6 11 C-4.68 10.67 -3.36 10.34 -2 10 C-2 9.34 -2 8.68 -2 8 C-1.34 8 -0.68 8 0 8 C0 5.36 0 2.72 0 0 Z " fill="#1DC8E9" transform="translate(396,384)"/>
<path d="M0 0 C0.66 0 1.32 0 2 0 C2 0.66 2 1.32 2 2 C1.34 2 0.68 2 0 2 C-0.12375 2.721875 -0.2475 3.44375 -0.375 4.1875 C-1 7 -1 7 -2 9.1875 C-3.25292719 12.71135774 -3.45506603 16.11289578 -3.625 19.8125 C-3.66367187 20.50537109 -3.70234375 21.19824219 -3.7421875 21.91210938 C-3.83573568 23.60767015 -3.91892364 25.30379712 -4 27 C-4.66 26.67 -5.32 26.34 -6 26 C-6.56483524 15.98986435 -5.61811258 8.42716887 0 0 Z " fill="#1FD0F8" transform="translate(36,182)"/>
<path d="M0 0 C0.33 0.99 0.66 1.98 1 3 C1.66 3 2.32 3 3 3 C3 2.34 3 1.68 3 1 C4.32 1 5.64 1 7 1 C7.33 1.99 7.66 2.98 8 4 C7.01 4.33 6.02 4.66 5 5 C5 5.66 5 6.32 5 7 C5.66 7 6.32 7 7 7 C6.67 8.32 6.34 9.64 6 11 C2.66666667 7.66666667 -0.66666667 4.33333333 -4 1 C-2.68 0.67 -1.36 0.34 0 0 Z " fill="#E6FCFD" transform="translate(383,305)"/>
<path d="M0 0 C0.33 0 0.66 0 1 0 C1 3.3 1 6.6 1 10 C1.66 10 2.32 10 3 10 C3 12.97 3 15.94 3 19 C1.34543395 16.51815092 0.49538331 14.80844465 -0.4375 12.0625 C-1.56669358 8.92265051 -2.89182943 6.61011594 -5 4 C-5 3.34 -5 2.68 -5 2 C-4.34 2 -3.68 2 -3 2 C-3 2.66 -3 3.32 -3 4 C-2.34 4 -1.68 4 -1 4 C-0.67 2.68 -0.34 1.36 0 0 Z " fill="#D5FAF9" transform="translate(399,320)"/>
<path d="M0 0 C1.98 0 3.96 0 6 0 C6 0.66 6 1.32 6 2 C9.3 2 12.6 2 16 2 C16 3.32 16 4.64 16 6 C10.23955788 5.39363767 5.27985631 3.24341721 0 1 C0 0.67 0 0.34 0 0 Z " fill="#D3F9F9" transform="translate(352,292)"/>
<path d="M0 0 C1.66611905 -0.042721 3.33382885 -0.04063832 5 0 C5.33 0.33 5.66 0.66 6 1 C8.32817964 1.36760731 10.6618385 1.70241581 13 2 C13 2.66 13 3.32 13 4 C12.34 4 11.68 4 11 4 C11 4.66 11 5.32 11 6 C11.99 6.33 12.98 6.66 14 7 C8.39958947 6.57996921 4.411509 4.31423011 0 1 C0 0.67 0 0.34 0 0 Z " fill="#27C7E9" transform="translate(299,416)"/>
<path d="M0 0 C1.32 0 2.64 0 4 0 C3.86722656 0.65226562 3.73445313 1.30453125 3.59765625 1.9765625 C2.65517178 6.6408287 1.74231297 11.29868454 1 16 C0.67 16 0.34 16 0 16 C0 10.72 0 5.44 0 0 Z " fill="#D5FBFC" transform="translate(268,336)"/>
<path d="M0 0 C1.28132813 0.10183594 2.56265625 0.20367187 3.8828125 0.30859375 C4.87023437 0.39238281 5.85765625 0.47617188 6.875 0.5625 C6.875 1.2225 6.875 1.8825 6.875 2.5625 C1.595 2.5625 -3.685 2.5625 -9.125 2.5625 C-9.125 1.9025 -9.125 1.2425 -9.125 0.5625 C-6.07230154 -0.96384923 -3.36654311 -0.27544444 0 0 Z " fill="#0DC9FC" transform="translate(61.125,171.4375)"/>
<path d="M0 0 C-2.2008849 2.47859908 -4.06372969 3.61210366 -7.1875 4.6875 C-8.26064453 5.06455078 -8.26064453 5.06455078 -9.35546875 5.44921875 C-9.89816406 5.63097656 -10.44085938 5.81273437 -11 6 C-11 5.34 -11 4.68 -11 4 C-10.34 4 -9.68 4 -9 4 C-9 2.68 -9 1.36 -9 0 C-5.93109813 -1.53445094 -3.29905734 -0.54984289 0 0 Z " fill="#23C7EC" transform="translate(371,418)"/>
<path d="M0 0 C5.28 0.99 10.56 1.98 16 3 C16 3.33 16 3.66 16 4 C11.38 4 6.76 4 2 4 C2 3.34 2 2.68 2 2 C1.34 2 0.68 2 0 2 C0 1.34 0 0.68 0 0 Z " fill="#C7FBFC" transform="translate(312,424)"/>
<path d="M0 0 C0.33 0.99 0.66 1.98 1 3 C-0.8125 5.6875 -0.8125 5.6875 -3 8 C-3.66 8 -4.32 8 -5 8 C-5 9.32 -5 10.64 -5 12 C-6.32 12 -7.64 12 -9 12 C-9 11.34 -9 10.68 -9 10 C-8.34 10 -7.68 10 -7 10 C-6.773125 9.46375 -6.54625 8.9275 -6.3125 8.375 C-4.56617944 5.21499137 -2.3597151 2.7323017 0 0 Z " fill="#B5F5FA" transform="translate(393,398)"/>
<path d="M0 0 C0.33 0.99 0.66 1.98 1 3 C0.34 3 -0.32 3 -1 3 C-1 3.66 -1 4.32 -1 5 C-1.66 5 -2.32 5 -3 5 C-3 6.32 -3 7.64 -3 9 C-3.66 9 -4.32 9 -5 9 C-5 9.66 -5 10.32 -5 11 C-5.66 11 -6.32 11 -7 11 C-7 11.66 -7 12.32 -7 13 C-7.66 12.67 -8.32 12.34 -9 12 C-8.06692579 10.55962331 -7.12834923 9.12281015 -6.1875 7.6875 C-5.66542969 6.88699219 -5.14335937 6.08648437 -4.60546875 5.26171875 C-3.19610151 3.2762598 -1.77903343 1.6508148 0 0 Z " fill="#30CCDC" transform="translate(285,315)"/>
<path d="M0 0 C0.33 0.99 0.66 1.98 1 3 C1.66 3 2.32 3 3 3 C3 4.32 3 5.64 3 7 C0 9 0 9 -3 9 C-2.01 6.03 -1.02 3.06 0 0 Z " fill="#CEF8FA" transform="translate(401,381)"/>
<path d="M0 0 C0.66 0.33 1.32 0.66 2 1 C1.44894091 4.9492568 0.61064629 8.34920174 -1 12 C-1.33 12 -1.66 12 -2 12 C-2 8.7 -2 5.4 -2 2 C-1.34 2 -0.68 2 0 2 C0 1.34 0 0.68 0 0 Z " fill="#DAFBFB" transform="translate(274,324)"/>
<path d="M0 0 C0 0.66 0 1.32 0 2 C-0.66 2 -1.32 2 -2 2 C-2 2.66 -2 3.32 -2 4 C-2.66 4 -3.32 4 -4 4 C-4 5.32 -4 6.64 -4 8 C-5.98 8 -7.96 8 -10 8 C-8.33333333 6.33333333 -6.66666667 4.66666667 -5 3 C-4.443125 2.401875 -3.88625 1.80375 -3.3125 1.1875 C-2 0 -2 0 0 0 Z " fill="#2BC8E3" transform="translate(298,304)"/>
<path d="M0 0 C0.66 1.32 1.32 2.64 2 4 C1.34 4.66 0.68 5.32 0 6 C-2.59269983 5.98252112 -5.0525154 5.86231408 -7.625 5.625 C-8.33140625 5.56828125 -9.0378125 5.5115625 -9.765625 5.453125 C-11.51121361 5.31159079 -13.25573673 5.15702613 -15 5 C-15 4.67 -15 4.34 -15 4 C-10.71 4 -6.42 4 -2 4 C-2 3.34 -2 2.68 -2 2 C-1.34 2 -0.68 2 0 2 C0 1.34 0 0.68 0 0 Z " fill="#14CAF1" transform="translate(162,794)"/>
<path d="M0 0 C1.32 0.33 2.64 0.66 4 1 C3.52949219 1.39832031 3.05898438 1.79664063 2.57421875 2.20703125 C1.64029297 3.00173828 1.64029297 3.00173828 0.6875 3.8125 C0.07261719 4.33457031 -0.54226563 4.85664063 -1.17578125 5.39453125 C-2.85424679 6.87172469 -4.43882034 8.40039131 -6 10 C-6 8.68 -6 7.36 -6 6 C-5.34 6 -4.68 6 -4 6 C-4 5.34 -4 4.68 -4 4 C-3.34 4 -2.68 4 -2 4 C-2 3.34 -2 2.68 -2 2 C-1.34 2 -0.68 2 0 2 C0 1.34 0 0.68 0 0 Z " fill="#BFF8FC" transform="translate(290,306)"/>
<path d="M0 0 C0 0.66 0 1.32 0 2 C-0.66 2 -1.32 2 -2 2 C-2 2.66 -2 3.32 -2 4 C-5.96 4 -9.92 4 -14 4 C-14 3.67 -14 3.34 -14 3 C-12.0424015 2.49713066 -10.08389623 1.9977901 -8.125 1.5 C-7.03445313 1.2215625 -5.94390625 0.943125 -4.8203125 0.65625 C-2 0 -2 0 0 0 Z " fill="#BAF8FC" transform="translate(360,424)"/>
<path d="M0 0 C0 2.31 0 4.62 0 7 C-1.32 7 -2.64 7 -4 7 C-4 5.02 -4 3.04 -4 1 C-1 0 -1 0 0 0 Z " fill="#0CCBFD" transform="translate(94,183)"/>
<path d="M0 0 C1.84851083 2.77276624 2.5205764 4.39992766 3.25 7.5625 C3.44078125 8.34753906 3.6315625 9.13257813 3.828125 9.94140625 C3.88484375 10.62074219 3.9415625 11.30007813 4 12 C3.34 12.66 2.68 13.32 2 14 C2 12.02 2 10.04 2 8 C1.34 8 0.68 8 0 8 C0 5.36 0 2.72 0 0 Z " fill="#28C6E2" transform="translate(400,336)"/>
<path d="M0 0 C2.39073445 3.82517513 2.55966552 7.59665524 3 12 C2.34 12 1.68 12 1 12 C1 10.68 1 9.36 1 8 C0.34 8 -0.32 8 -1 8 C-0.67 5.36 -0.34 2.72 0 0 Z " fill="#D6FAFB" transform="translate(267,364)"/>
<path d="M0 0 C0.33 0.99 0.66 1.98 1 3 C-1.3125 6.1875 -1.3125 6.1875 -4 9 C-4.66 9 -5.32 9 -6 9 C-5.67 7.35 -5.34 5.7 -5 4 C-4.0409375 3.8453125 -4.0409375 3.8453125 -3.0625 3.6875 C-2.381875 3.460625 -1.70125 3.23375 -1 3 C-0.67 2.01 -0.34 1.02 0 0 Z " fill="#20CFF7" transform="translate(95,219)"/>
<path d="M0 0 C2.97 1.65 5.94 3.3 9 5 C9 5.33 9 5.66 9 6 C6.69 6 4.38 6 2 6 C2 4.68 2 3.36 2 2 C1.34 2 0.68 2 0 2 C0 1.34 0 0.68 0 0 Z " fill="#B8F5F9" transform="translate(298,416)"/>
<path d="M0 0 C0.99 0 1.98 0 3 0 C3 0.66 3 1.32 3 2 C3.66 2 4.32 2 5 2 C5 2.66 5 3.32 5 4 C6.32 4 7.64 4 9 4 C8.67 5.32 8.34 6.64 8 8 C6.66372225 6.85760183 5.33104612 5.71098945 4 4.5625 C3.2575 3.92441406 2.515 3.28632813 1.75 2.62890625 C1.1725 2.09136719 0.595 1.55382812 0 1 C0 0.67 0 0.34 0 0 Z " fill="#33C9E0" transform="translate(289,408)"/>
<path d="M0 0 C4.29 0 8.58 0 13 0 C13 0.66 13 1.32 13 2 C11.35 2.33 9.7 2.66 8 3 C8 2.34 8 1.68 8 1 C5.36 1 2.72 1 0 1 C0 0.67 0 0.34 0 0 Z " fill="#1DD7F3" transform="translate(62,167)"/>
<path d="M0 0 C1.32 0.33 2.64 0.66 4 1 C2.71186658 1.83878455 1.41936744 2.67086783 0.125 3.5 C-0.59429687 3.9640625 -1.31359375 4.428125 -2.0546875 4.90625 C-4 6 -4 6 -6 6 C-6 5.34 -6 4.68 -6 4 C-5.34 4 -4.68 4 -4 4 C-4 3.34 -4 2.68 -4 2 C-2.68 2 -1.36 2 0 2 C0 1.34 0 0.68 0 0 Z " fill="#B4F9FC" transform="translate(302,298)"/>
<path d="M0 0 C0.66 0 1.32 0 2 0 C2 1.98 2 3.96 2 6 C1.34 6 0.68 6 0 6 C0 6.66 0 7.32 0 8 C-0.66 8 -1.32 8 -2 8 C-2 6.68 -2 5.36 -2 4 C-1.34 4 -0.68 4 0 4 C0 2.68 0 1.36 0 0 Z " fill="#0CCBFE" transform="translate(44,214)"/>
<path d="M0 0 C0.66 0 1.32 0 2 0 C2 0.66 2 1.32 2 2 C2.66 2 3.32 2 4 2 C4.99 3.485 4.99 3.485 6 5 C5.67 5.99 5.34 6.98 5 8 C1.39345961 5.59563974 1.14547068 4.05320393 0 0 Z " fill="#2CCBDE" transform="translate(278,394)"/>
<path d="M0 0 C0.66 0.33 1.32 0.66 2 1 C2 3.64 2 6.28 2 9 C0.4375 7.3125 0.4375 7.3125 -1 5 C-0.6875 2.25 -0.6875 2.25 0 0 Z " fill="#21C5DF" transform="translate(274,381)"/>
<path d="M0 0 C1.32 0 2.64 0 4 0 C4 0.66 4 1.32 4 2 C4.66 2 5.32 2 6 2 C5.67 3.32 5.34 4.64 5 6 C3.35 4.02 1.7 2.04 0 0 Z " fill="#CCF9FC" transform="translate(384,310)"/>
</svg>
